<svg width="52" height="50" fill="none" xmlns="http://www.w3.org/2000/svg"><path d="M49.977 26.523c.84 0 1.523-.682 1.523-1.523V13.625c0-.841-.682-1.523-1.523-1.523H27.023V2.25c0-.841-.682-1.523-1.523-1.523H9.25c-.841 0-1.523.682-1.523 1.523v9.852H1.023c-.84 0-1.523.682-1.523 1.523V25c0 .841.682 1.523 1.523 1.523h6.704v8.329H1.023c-.84 0-1.523.682-1.523 1.523V47.75c0 .841.682 1.523 1.523 1.523h48.954c.84 0 1.523-.682 1.523-1.523V36.375c0-.841-.682-1.523-1.523-1.523h-6.704v-8.329h6.704zm-1.524-3.046H35.148v-8.329h13.305v8.329zm-16.351 0H18.898v-8.329h13.204v8.329zM10.773 3.773h13.204v8.329H10.773V3.773zM2.547 23.477v-8.329h13.305v8.329H2.547zm8.226 3.046h13.204v8.329H10.773v-8.329zM2.547 37.898h13.305v8.329H2.547v-8.329zm16.351 0h13.204v8.329H18.898v-8.329zm29.555 0v8.329H35.148v-8.329h13.305zm-8.226-3.046H27.023v-8.329h13.204v8.329z" fill="#FF5A30"/></svg>