<svg width="52" height="52" viewBox="0 0 52 52" fill="none" xmlns="http://www.w3.org/2000/svg">
<path d="M48.7504 30.9497C49.7897 29.5433 49.9811 27.582 49.0361 25.9454L42.9455 15.2945C41.8919 13.4696 39.6701 12.6369 37.6882 13.1667C38.1102 11.2698 37.2823 9.23477 35.5124 8.21295L24.9584 2.11961C23.4511 1.24922 21.6489 1.33839 20.2628 2.19568C19.4596 0.880141 18.0104 0 16.3594 0H4.07031C1.55024 0 -0.5 2.05024 -0.5 4.57031C-0.5 5.62707 -0.5 46.2132 -0.5 47.4297C-0.5 49.9498 1.55024 52 4.07031 52C5.25382 52 41.1374 52 46.9297 52C49.4498 52 51.5 49.9498 51.5 47.4297V35.1406C51.5 33.2675 50.3669 31.6547 48.7504 30.9497ZM17.8828 47.4297C17.8828 48.2697 17.1994 48.9531 16.3594 48.9531H4.07031C3.23029 48.9531 2.54688 48.2697 2.54688 47.4297C2.54688 46.7337 2.54688 34.2857 2.54688 33.6172H17.8828V47.4297ZM17.8828 30.5703H2.54688V18.2812H17.8828V30.5703ZM17.8828 15.2344H2.54688V4.57031C2.54688 3.73029 3.23029 3.04688 4.07031 3.04688H16.3594C17.1994 3.04688 17.8828 3.73029 17.8828 4.57031V15.2344ZM20.9297 6.04988L21.3533 5.31609C21.7736 4.58839 22.7073 4.33814 23.4349 4.7583L33.989 10.8516C34.7167 11.2718 34.9668 12.2056 34.5456 12.9353L32.7853 15.9951C32.7412 16.0602 32.7016 16.1278 32.6683 16.1984L20.9297 36.6026V6.04988ZM20.9297 42.7126L35.171 17.9581L38.1156 16.258C38.8621 15.8271 39.8859 16.0888 40.3038 16.8125L46.3944 27.4633C46.8156 28.1929 46.57 29.1283 45.8328 29.5539C44.7449 30.1837 22.0011 43.3507 20.9297 43.971V42.7126ZM48.4531 47.4297C48.4531 48.2697 47.7697 48.9531 46.9297 48.9531H20.6677C20.8301 48.4951 20.9212 48.0039 20.9282 47.4926L44.8954 33.6172H46.9297C47.7697 33.6172 48.4531 34.3006 48.4531 35.1406V47.4297Z" fill="white"/>
</svg>
