<svg width="52" height="50" viewBox="0 0 52 50" fill="none" xmlns="http://www.w3.org/2000/svg">
<path d="M49.9766 26.5234C50.8179 26.5234 51.5 25.8413 51.5 25V13.625C51.5 12.7837 50.8179 12.1016 49.9766 12.1016C48.9146 12.1016 28.168 12.1016 27.0234 12.1016V2.25C27.0234 1.40866 26.3413 0.726562 25.5 0.726562H9.25C8.40866 0.726562 7.72656 1.40866 7.72656 2.25V12.1016H1.02344C0.182094 12.1016 -0.5 12.7837 -0.5 13.625V25C-0.5 25.8413 0.182094 26.5234 1.02344 26.5234H7.72656V34.8516H1.02344C0.182094 34.8516 -0.5 35.5337 -0.5 36.375V47.75C-0.5 48.5913 0.182094 49.2734 1.02344 49.2734H49.9766C50.8179 49.2734 51.5 48.5913 51.5 47.75V36.375C51.5 35.5337 50.8179 34.8516 49.9766 34.8516H43.2734V26.5234H49.9766ZM48.4531 23.4766C46.8232 23.4766 36.7597 23.4766 35.1484 23.4766V15.1484H48.4531V23.4766ZM32.1016 23.4766C30.5059 23.4766 20.5046 23.4766 18.8984 23.4766V15.1484H32.1016V23.4766ZM10.7734 3.77344H23.9766V12.1016C22.3809 12.1016 12.3796 12.1016 10.7734 12.1016V3.77344ZM2.54688 23.4766V15.1484H15.8516V23.4766C14.2396 23.4766 4.17645 23.4766 2.54688 23.4766ZM10.7734 26.5234H23.9766V34.8516C22.3809 34.8516 12.3796 34.8516 10.7734 34.8516V26.5234ZM2.54688 37.8984H15.8516V46.2266H2.54688V37.8984ZM18.8984 37.8984H32.1016V46.2266H18.8984V37.8984ZM48.4531 37.8984V46.2266H35.1484V37.8984H48.4531ZM40.2266 34.8516C38.6309 34.8516 28.6296 34.8516 27.0234 34.8516V26.5234H40.2266V34.8516Z" fill="#FF5A30"/>
</svg>
