<svg width="24" height="24" viewBox="0 0 24 24" fill="none" xmlns="http://www.w3.org/2000/svg">
<path d="M2 9.99985C2 8.89985 2.9 7.99985 4 7.99985H6.3C6.8 7.99985 7.2 7.79985 7.5 7.59985L10.3 5.29985C11 4.79985 12 5.19985 12 6.09985V17.8998C12 18.6998 11 19.1998 10.4 18.6998L7.6 16.3998C7.2 16.1998 6.8 15.9998 6.3 15.9998H4C2.9 15.9998 2 15.0998 2 13.9998V9.99985Z" fill="#1E212C"/>
<path d="M15 17C14.7 17 14.5 16.9 14.3 16.7C13.9 16.3 13.9 15.7 14.3 15.3C14.3 15.3 15.5 14 15.5 12C15.5 10 14.3 8.8 14.3 8.7C13.9 8.3 13.9 7.7 14.3 7.3C14.7 6.9 15.3 6.9 15.7 7.3C15.8 7.4 17.5 9.1 17.5 12C17.5 14.9 15.8 16.6 15.7 16.7C15.5 16.9 15.3 17 15 17Z" fill="#1E212C"/>
<path d="M18 21C17.7 21 17.5 20.9 17.3 20.7C16.9 20.3 16.9 19.7 17.3 19.3C17.3 19.3 20.2 16.5 20.2 12C20.2 7.5 17.3 4.8 17.3 4.7C16.9 4.3 16.9 3.7 17.3 3.3C17.7 2.9 18.3 2.9 18.7 3.3C18.8 3.4 22.2 6.7 22.2 12C22.2 17.4 18.8 20.6 18.7 20.7C18.5 20.9 18.2 21 18 21Z" fill="#1E212C"/>
</svg>
